<svg width="512" height="512" viewBox="0 0 512 512" fill="none" xmlns="http://www.w3.org/2000/svg">
<g clip-path="url(#clip0_406_59)">
<rect width="512" height="512" fill="#466239" fill-opacity="0.75"/>
<g filter="url(#filter0_dd_406_59)">
<rect x="110" y="195" width="292" height="122" rx="8" fill="#82BE80"/>
<rect x="110.5" y="195.5" width="291" height="121" rx="7.5" stroke="#6FFF97"/>
</g>
<path d="M282.648 275.088C282.648 278.843 281.752 281.957 279.96 284.432C278.253 286.907 275.267 289.851 271 293.264C267.672 295.909 263.789 297.488 259.352 298C259.352 301.84 259.395 304.144 259.48 304.912C259.48 305.765 259.181 306.405 258.584 306.832C258.072 307.259 257.389 307.472 256.536 307.472C255.427 307.472 254.403 307.088 253.464 306.32C252.611 305.637 252.184 304.656 252.184 303.376C252.184 301.925 252.099 300.261 251.928 298.384C250.051 298.299 248.301 297.957 246.68 297.36C245.059 296.763 243.693 296.208 242.584 295.696C241.56 295.184 240.877 294.843 240.536 294.672C237.464 292.539 235.16 290.832 233.624 289.552C232.088 288.187 230.851 286.693 229.912 285.072C228.973 283.451 228.504 281.531 228.504 279.312C228.504 277.179 228.973 275.728 229.912 274.96C230.851 274.107 232.557 273.68 235.032 273.68C236.141 273.68 237.208 273.979 238.232 274.576C239.256 275.173 240.024 275.899 240.536 276.752C243.352 281.787 246.979 284.901 251.416 286.096C251.416 285.584 251.501 282.725 251.672 277.52C251.843 272.315 251.971 267.067 252.056 261.776C247.192 260.069 243.736 258.704 241.688 257.68C233.411 253.584 229.272 247.611 229.272 239.76C229.272 236.432 230.424 233.019 232.728 229.52C235.032 226.021 237.72 223.547 240.792 222.096C241.987 221.499 243.693 220.816 245.912 220.048C248.131 219.28 250.264 218.64 252.312 218.128C252.312 215.739 252.269 213.989 252.184 212.88C252.184 211.344 252.568 210.277 253.336 209.68C254.104 208.997 254.872 208.656 255.64 208.656C257.603 208.656 258.797 209.339 259.224 210.704C259.736 212.069 259.949 214.416 259.864 217.744C262.595 218 265.624 219.024 268.952 220.816C272.792 223.035 275.565 224.997 277.272 226.704C279.064 228.325 279.96 230.416 279.96 232.976C279.96 234.427 279.363 235.621 278.168 236.56C276.973 237.499 275.011 237.968 272.28 237.968C271.085 237.968 269.549 236.773 267.672 234.384C265.965 232.507 264.643 231.355 263.704 230.928C263.363 230.843 262.808 230.672 262.04 230.416C261.272 230.075 260.504 229.819 259.736 229.648C259.736 237.413 259.651 243.856 259.48 248.976V250.896C264.088 252.944 267.885 254.907 270.872 256.784C274.968 259.344 277.955 261.904 279.832 264.464C281.709 266.939 282.648 270.48 282.648 275.088ZM242.2 239.12C242.2 240.827 243.011 242.448 244.632 243.984C246.253 245.435 248.131 246.544 250.264 247.312L252.184 247.952V229.52C249.368 230.117 246.979 231.227 245.016 232.848C243.139 234.469 242.2 236.56 242.2 239.12ZM259.224 285.968C262.296 285.115 264.771 283.664 266.648 281.616C268.525 279.568 269.464 277.477 269.464 275.344C269.464 271.589 266.093 268.176 259.352 265.104C259.267 269.456 259.224 276.411 259.224 285.968Z" fill="#F3FFF8"/>
</g>
<defs>
<filter id="filter0_dd_406_59" x="106" y="195" width="300" height="130" filterUnits="userSpaceOnUse" color-interpolation-filters="sRGB">
<feFlood flood-opacity="0" result="BackgroundImageFix"/>
<feColorMatrix in="SourceAlpha" type="matrix" values="0 0 0 0 0 0 0 0 0 0 0 0 0 0 0 0 0 0 127 0" result="hardAlpha"/>
<feOffset dy="4"/>
<feGaussianBlur stdDeviation="2"/>
<feComposite in2="hardAlpha" operator="out"/>
<feColorMatrix type="matrix" values="0 0 0 0 0 0 0 0 0 0 0 0 0 0 0 0 0 0 0.25 0"/>
<feBlend mode="normal" in2="BackgroundImageFix" result="effect1_dropShadow_406_59"/>
<feColorMatrix in="SourceAlpha" type="matrix" values="0 0 0 0 0 0 0 0 0 0 0 0 0 0 0 0 0 0 127 0" result="hardAlpha"/>
<feOffset dy="4"/>
<feGaussianBlur stdDeviation="2"/>
<feComposite in2="hardAlpha" operator="out"/>
<feColorMatrix type="matrix" values="0 0 0 0 0 0 0 0 0 0 0 0 0 0 0 0 0 0 0.25 0"/>
<feBlend mode="normal" in2="effect1_dropShadow_406_59" result="effect2_dropShadow_406_59"/>
<feBlend mode="normal" in="SourceGraphic" in2="effect2_dropShadow_406_59" result="shape"/>
</filter>
<clipPath id="clip0_406_59">
<rect width="512" height="512" fill="white"/>
</clipPath>
</defs>
</svg>
